<svg width="30" height="30" viewBox="0 0 30 30" fill="none" xmlns="http://www.w3.org/2000/svg">
<g clip-path="url(#clip0_1116_125)">
<path d="M16.8748 13.125C16.8748 14.16 16.0348 15 14.9998 15C13.9648 15 13.1248 14.16 13.1248 13.125C13.1248 12.09 13.9648 11.25 14.9998 11.25C16.0348 11.25 16.8748 12.09 16.8748 13.125ZM21.2498 11.25C20.2148 11.25 19.3748 12.09 19.3748 13.125C19.3748 14.16 20.2148 15 21.2498 15C22.2848 15 23.1248 14.16 23.1248 13.125C23.1248 12.09 22.2848 11.25 21.2498 11.25ZM8.74979 11.25C7.71479 11.25 6.87479 12.09 6.87479 13.125C6.87479 14.16 7.71479 15 8.74979 15C9.78479 15 10.6248 14.16 10.6248 13.125C10.6248 12.09 9.78479 11.25 8.74979 11.25ZM29.9998 5V20C29.9998 22.7575 27.7573 25 24.9998 25H21.4348L16.6248 28.975C16.1735 29.3775 15.5948 29.58 15.0098 29.58C14.4148 29.58 13.816 29.37 13.3385 28.9462L8.65229 25H4.99854C2.24104 25 -0.00146484 22.7575 -0.00146484 20V5C-0.000214844 2.2425 2.24229 0 4.99979 0H24.9998C27.7573 0 29.9998 2.2425 29.9998 5ZM27.4998 5C27.4998 3.62125 26.3785 2.5 24.9998 2.5H4.99979C3.62104 2.5 2.49979 3.62125 2.49979 5V20C2.49979 21.3787 3.62104 22.5 4.99979 22.5H9.10979C9.40354 22.5 9.68979 22.6038 9.91604 22.7938L14.976 27.0563L20.1898 22.7863C20.4135 22.6012 20.6948 22.5 20.986 22.5H25.001C26.3798 22.5 27.501 21.3787 27.501 20L27.4998 5Z" fill="#92CAFF"/>
</g>
<defs>
<clipPath id="clip0_1116_125">
<rect width="30" height="30" fill="white"/>
</clipPath>
</defs>
</svg>
