<svg width="30" height="30" viewBox="0 0 30 30" fill="none" xmlns="http://www.w3.org/2000/svg">
<g clip-path="url(#clip0_1116_132)">
<path d="M21.8747 1.14648C20.4671 1.16838 19.0903 1.5613 17.8832 2.28557C16.676 3.00985 15.6814 4.03982 14.9997 5.27148C14.318 4.03982 13.3234 3.00985 12.1163 2.28557C10.9091 1.5613 9.53227 1.16838 8.1247 1.14648C5.88088 1.24397 3.76684 2.22555 2.24443 3.87677C0.722028 5.528 -0.0849845 7.71464 -0.000296277 9.95898C-0.000296277 18.4277 13.6947 28.209 14.2772 28.624L14.9997 29.1352L15.7222 28.624C16.3047 28.2115 29.9997 18.4277 29.9997 9.95898C30.0844 7.71464 29.2774 5.528 27.755 3.87677C26.2326 2.22555 24.1185 1.24397 21.8747 1.14648Z" fill="#92CAFF"/>
</g>
<defs>
<clipPath id="clip0_1116_132">
<rect width="30" height="30" fill="white"/>
</clipPath>
</defs>
</svg>
