<svg width="36" height="33" viewBox="0 0 36 33" fill="none" xmlns="http://www.w3.org/2000/svg">
<path d="M25.5279 0C23.8857 0.0255426 22.2794 0.483953 20.8711 1.32894C19.4628 2.17392 18.3024 3.37556 17.5071 4.8125C16.7117 3.37556 15.5513 2.17392 14.143 1.32894C12.7347 0.483953 11.1284 0.0255426 9.48623 0C6.86843 0.113736 4.40205 1.25891 2.62591 3.18534C0.849772 5.11176 -0.0917429 7.66285 0.00705994 10.2812C0.00705994 20.1615 15.9846 31.5729 16.6641 32.0571L17.5071 32.6535L18.35 32.0571C19.0296 31.5758 35.0071 20.1615 35.0071 10.2812C35.1059 7.66285 34.1643 5.11176 32.3882 3.18534C30.6121 1.25891 28.1457 0.113736 25.5279 0ZM17.5071 29.0631C12.7631 25.5194 2.92373 16.8131 2.92373 10.2812C2.82404 8.43604 3.45801 6.62627 4.68738 5.24665C5.91675 3.86702 7.64178 3.02947 9.48623 2.91667C11.3307 3.02947 13.0557 3.86702 14.2851 5.24665C15.5144 6.62627 16.1484 8.43604 16.0487 10.2812H18.9654C18.8657 8.43604 19.4997 6.62627 20.729 5.24665C21.9584 3.86702 23.6834 3.02947 25.5279 2.91667C27.3723 3.02947 29.0974 3.86702 30.3267 5.24665C31.5561 6.62627 32.1901 8.43604 32.0904 10.2812C32.0904 16.816 22.251 25.5194 17.5071 29.0631Z" fill="#92CAFF"/>
</svg>
