<svg width="29" height="29" viewBox="0 0 29 29" fill="none" xmlns="http://www.w3.org/2000/svg">
<g clip-path="url(#clip0_1289_40)">
<path d="M8.45829 28.9993C9.79298 28.9993 10.875 27.9174 10.875 26.5827C10.875 25.248 9.79298 24.166 8.45829 24.166C7.1236 24.166 6.04163 25.248 6.04163 26.5827C6.04163 27.9174 7.1236 28.9993 8.45829 28.9993Z" fill="white"/>
<path d="M20.5417 28.9993C21.8764 28.9993 22.9583 27.9174 22.9583 26.5827C22.9583 25.248 21.8764 24.166 20.5417 24.166C19.207 24.166 18.125 25.248 18.125 26.5827C18.125 27.9174 19.207 28.9993 20.5417 28.9993Z" fill="white"/>
<path d="M27.7917 3.625H25.375V1.20833C25.375 0.887863 25.2477 0.580519 25.0211 0.353913C24.7945 0.127306 24.4872 0 24.1667 0C23.8462 0 23.5389 0.127306 23.3123 0.353913C23.0857 0.580519 22.9584 0.887863 22.9584 1.20833V3.625H20.5417C20.2212 3.625 19.9139 3.75231 19.6873 3.97891C19.4607 4.20552 19.3334 4.51286 19.3334 4.83333C19.3334 5.1538 19.4607 5.46115 19.6873 5.68775C19.9139 5.91436 20.2212 6.04167 20.5417 6.04167H22.9584V8.45833C22.9584 8.7788 23.0857 9.08615 23.3123 9.31275C23.5389 9.53936 23.8462 9.66667 24.1667 9.66667C24.4872 9.66667 24.7945 9.53936 25.0211 9.31275C25.2477 9.08615 25.375 8.7788 25.375 8.45833V6.04167H27.7917C28.1122 6.04167 28.4195 5.91436 28.6461 5.68775C28.8727 5.46115 29 5.1538 29 4.83333C29 4.51286 28.8727 4.20552 28.6461 3.97891C28.4195 3.75231 28.1122 3.625 27.7917 3.625Z" fill="white"/>
<path d="M26.3066 11.7522C26.1504 11.723 25.9899 11.7251 25.8345 11.7583C25.679 11.7916 25.5318 11.8553 25.4012 11.9459C25.2706 12.0365 25.1592 12.1521 25.0736 12.2861C24.9881 12.42 24.9299 12.5696 24.9025 12.7262C24.7518 13.5625 24.3121 14.3193 23.6601 14.8644C23.0081 15.4095 22.1854 15.7082 21.3355 15.7083H6.54675L5.41092 6.04167H15.7083C16.0288 6.04167 16.3361 5.91436 16.5628 5.68775C16.7894 5.46115 16.9167 5.1538 16.9167 4.83333C16.9167 4.51286 16.7894 4.20552 16.5628 3.97891C16.3361 3.75231 16.0288 3.625 15.7083 3.625H5.12575L5.075 3.19967C4.97087 2.31831 4.54703 1.50577 3.88381 0.916042C3.22059 0.326316 2.36407 0.000378011 1.47658 0L1.20833 0C0.887863 0 0.580519 0.127306 0.353913 0.353913C0.127306 0.580519 0 0.887863 0 1.20833C0 1.5288 0.127306 1.83615 0.353913 2.06275C0.580519 2.28936 0.887863 2.41667 1.20833 2.41667H1.47658C1.77254 2.41671 2.0582 2.52536 2.27937 2.72203C2.50053 2.9187 2.64183 3.1897 2.67646 3.48362L4.33913 17.6211C4.51174 19.0914 5.21816 20.4472 6.32431 21.431C7.43045 22.4149 8.85933 22.9584 10.3397 22.9583H22.9583C23.2788 22.9583 23.5861 22.831 23.8128 22.6044C24.0394 22.3778 24.1667 22.0705 24.1667 21.75C24.1667 21.4295 24.0394 21.1222 23.8128 20.8956C23.5861 20.669 23.2788 20.5417 22.9583 20.5417H10.3397C9.58996 20.5418 8.85861 20.3095 8.2464 19.8767C7.6342 19.4439 7.17125 18.8319 6.92133 18.125H21.3355C22.7519 18.1251 24.1233 17.6277 25.2101 16.7195C26.297 15.8113 27.0302 14.5502 27.2817 13.1563C27.31 13.0001 27.3071 12.8398 27.2734 12.6847C27.2397 12.5296 27.1757 12.3826 27.0851 12.2522C26.9946 12.1218 26.8792 12.0106 26.7456 11.9248C26.6121 11.839 26.4629 11.7804 26.3066 11.7522Z" fill="white"/>
</g>
<defs>
<clipPath id="clip0_1289_40">
<rect width="29" height="29" fill="white"/>
</clipPath>
</defs>
</svg>
