<svg width="29" height="29" viewBox="0 0 29 29" fill="none" xmlns="http://www.w3.org/2000/svg">
<path d="M14.5 14.4765C15.4559 14.4765 16.3904 14.1933 17.1853 13.6628C17.9801 13.1323 18.5996 12.3783 18.9654 11.4961C19.3312 10.6139 19.427 9.64321 19.2405 8.70669C19.054 7.77016 18.5936 6.90991 17.9177 6.23472C17.2417 5.55953 16.3805 5.09971 15.4429 4.91343C14.5054 4.72714 13.5335 4.82275 12.6504 5.18816C11.7672 5.55357 11.0123 6.17238 10.4812 6.96632C9.95014 7.76027 9.66667 8.69369 9.66667 9.64856C9.66667 10.929 10.1759 12.157 11.0823 13.0624C11.9887 13.9678 13.2181 14.4765 14.5 14.4765ZM14.5 7.23461C14.978 7.23461 15.4452 7.37619 15.8426 7.64144C16.24 7.90668 16.5498 8.28369 16.7327 8.72478C16.9156 9.16587 16.9635 9.65124 16.8702 10.1195C16.777 10.5878 16.5468 11.0179 16.2088 11.3555C15.8709 11.6931 15.4403 11.923 14.9715 12.0161C14.5027 12.1093 14.0168 12.0615 13.5752 11.8788C13.1336 11.6961 12.7562 11.3867 12.4906 10.9897C12.2251 10.5927 12.0833 10.126 12.0833 9.64856C12.0833 9.00834 12.3379 8.39434 12.7912 7.94164C13.2444 7.48894 13.8591 7.23461 14.5 7.23461ZM19.3333 26.5824L29 28.9336V16.2664C28.9997 15.489 28.749 14.7322 28.2848 14.1082C27.8207 13.4841 27.1677 13.0259 26.4226 12.8012L23.8851 11.9563C24.0707 11.2035 24.1652 10.4311 24.1667 9.6558C24.1667 7.09492 23.1482 4.63893 21.3354 2.82812C19.5225 1.0173 17.0638 0 14.5 0C11.9362 0 9.47749 1.0173 7.66464 2.82812C5.85178 4.63893 4.83333 7.09492 4.83333 9.6558C4.83691 10.1458 4.8773 10.6347 4.95417 11.1187C4.40543 10.9001 3.81144 10.8193 3.22416 10.8831C2.63689 10.947 2.07422 11.1536 1.58539 11.4849C1.09656 11.8162 0.696451 12.2621 0.420072 12.7836C0.143694 13.3052 -0.000535546 13.8864 1.49427e-06 14.4765V26.2469L9.64613 29L19.3333 26.5824ZM9.37304 4.53581C10.7351 3.19457 12.5726 2.4453 14.4853 2.45122C16.3979 2.45715 18.2308 3.21779 19.5845 4.56745C20.9382 5.91711 21.7032 7.74644 21.7127 9.65692C21.7222 11.5674 20.9756 13.4043 19.6354 14.7673L14.5 19.7872L9.37304 14.777C8.01351 13.4189 7.24974 11.577 7.24974 9.65641C7.24974 7.73583 8.01351 5.89391 9.37304 4.53581ZM2.41667 14.4765C2.41514 14.2774 2.46369 14.0811 2.55785 13.9057C2.65201 13.7302 2.78877 13.5812 2.95558 13.4723C3.13008 13.3579 3.33111 13.2902 3.53934 13.2759C3.74756 13.2615 3.95599 13.3009 4.14458 13.3902L5.87733 14.0154C6.34092 14.9324 6.94741 15.77 7.67413 16.4969L14.5 23.1667L21.3355 16.4885C22.0077 15.8181 22.5776 15.0527 23.0272 14.217L25.7061 15.1113C25.9584 15.1834 26.1804 15.3356 26.3384 15.5449C26.4965 15.7541 26.582 16.0091 26.5821 16.2712V25.8655L19.3333 24.0961L9.69083 26.51L2.41667 24.4292V14.4765Z" fill="white"/>
</svg>
