<svg width="29" height="29" viewBox="0 0 29 29" fill="none" xmlns="http://www.w3.org/2000/svg">
<g clip-path="url(#clip0_1289_33)">
<path d="M29 27.291L21.4334 19.7244C23.3989 17.3206 24.3653 14.2532 24.1326 11.1568C23.9 8.06044 22.4861 5.17192 20.1835 3.08874C17.8808 1.00556 14.8656 -0.112891 11.7615 -0.0352773C8.65732 0.0423362 5.70175 1.31008 3.5061 3.50573C1.31045 5.70138 0.0427024 8.65695 -0.0349111 11.7611C-0.112525 14.8652 1.00593 17.8805 3.08911 20.1831C5.17229 22.4857 8.06081 23.8996 11.1572 24.1323C14.2536 24.3649 17.321 23.3985 19.7248 21.433L27.2914 28.9996L29 27.291ZM12.0833 21.7496C10.1714 21.7496 8.30248 21.1827 6.7128 20.1205C5.12313 19.0583 3.88413 17.5486 3.15248 15.7822C2.42083 14.0159 2.2294 12.0722 2.60239 10.1971C2.97538 8.32193 3.89604 6.59949 5.24795 5.24758C6.59986 3.89567 8.32229 2.97501 10.1974 2.60202C12.0726 2.22903 14.0162 2.42046 15.7826 3.15211C17.5489 3.88376 19.0587 5.12276 20.1209 6.71244C21.183 8.30211 21.75 10.1711 21.75 12.0829C21.7471 14.6458 20.7277 17.1029 18.9155 18.9151C17.1033 20.7274 14.6462 21.7467 12.0833 21.7496Z" fill="white"/>
</g>
<defs>
<clipPath id="clip0_1289_33">
<rect width="29" height="29" fill="white"/>
</clipPath>
</defs>
</svg>
