<svg width="22" height="29" viewBox="0 0 22 29" fill="none" xmlns="http://www.w3.org/2000/svg">
<path d="M21.812 28.7484H19.4163V22.7075C19.4153 21.7683 19.0418 20.8679 18.3777 20.2038C17.7137 19.5398 16.8132 19.1663 15.8741 19.1653H6.18795C5.2488 19.1663 4.34839 19.5398 3.68431 20.2038C3.02023 20.8679 2.64673 21.7683 2.64578 22.7075V28.7484H0.25V22.7075C0.251902 21.1332 0.878116 19.624 1.99129 18.5108C3.10445 17.3976 4.61369 16.7714 6.18795 16.7695H15.8741C17.4484 16.7714 18.9576 17.3976 20.0708 18.5108C21.1839 19.624 21.8101 21.1332 21.812 22.7075V28.7484Z" fill="white"/>
<path d="M11.0311 14.3747C9.60958 14.3747 8.21998 13.9532 7.03803 13.1634C5.85607 12.3737 4.93485 11.2511 4.39086 9.93783C3.84686 8.62452 3.70453 7.17938 3.98186 5.78517C4.25918 4.39096 4.94371 3.1103 5.94888 2.10513C6.95405 1.09996 8.23471 0.415432 9.62892 0.138106C11.0231 -0.139219 12.4683 0.00311418 13.7816 0.547108C15.0949 1.0911 16.2174 2.01232 17.0072 3.19428C17.7969 4.37623 18.2185 5.76583 18.2185 7.18735C18.2165 9.09297 17.4587 10.92 16.1112 12.2675C14.7637 13.615 12.9367 14.3728 11.0311 14.3747ZM11.0311 2.39579C10.0834 2.39579 9.15702 2.67681 8.36905 3.20331C7.58108 3.72982 6.96693 4.47816 6.60427 5.3537C6.24161 6.22924 6.14672 7.19267 6.3316 8.12214C6.51649 9.05161 6.97284 9.90539 7.64295 10.5755C8.31307 11.2456 9.16684 11.702 10.0963 11.8869C11.0258 12.0717 11.9892 11.9768 12.8648 11.6142C13.7403 11.2515 14.4886 10.6374 15.0151 9.8494C15.5416 9.06143 15.8227 8.13504 15.8227 7.18735C15.8227 5.91655 15.3178 4.6978 14.4193 3.7992C13.5207 2.90061 12.3019 2.39579 11.0311 2.39579Z" fill="white"/>
</svg>
