<svg width="20" height="20" viewBox="0 0 20 20" fill="none" xmlns="http://www.w3.org/2000/svg">
<g clip-path="url(#clip0_1633_201)">
<path fill-rule="evenodd" clip-rule="evenodd" d="M10 0C15.5228 0 20 4.47715 20 10C20 15.5228 15.5228 20 10 20C4.47715 20 0 15.5228 0 10C0 4.47715 4.47715 0 10 0ZM13.9286 15.421H6.4036V15.7143H13.9286V15.421ZM13.3384 3.24992C11.5859 4.4099 10.3874 6.62263 10.3874 6.62263C9.84881 7.49098 8.96745 9.00338 8.0838 10.5407L7.91817 10.8291C7.2838 11.9346 6.65923 13.033 6.17091 13.8944C5.82601 13.8944 5.37076 13.5147 5.37076 13.5147C5.54044 13.9546 6 14.1917 6 14.1917C5.52938 15.0232 5.22321 15.5676 5.22321 15.5676L6.25605 15.1277C6.37286 14.8363 6.4952 14.5509 6.62246 14.2726C10.8872 14.1451 12.2012 11.6719 12.2995 11.4743L12.3052 11.4625C13.1383 9.93 12.1366 9.59149 12.0211 9.5583L12.0132 9.55612C12.0114 9.55565 12.0104 9.55542 12.0104 9.55542C10.5463 9.1543 8.11332 11.5601 8.11332 11.5601C9.38811 9.57768 10.6449 8.27524 10.9213 7.99786L10.9521 7.96716C10.9548 7.96442 10.9574 7.9619 10.9597 7.95962L10.9709 7.94861C10.9751 7.94447 10.9773 7.94239 10.9773 7.94239C11.7993 7.13029 11.5219 6.72892 11.4397 6.64127L11.4307 6.6321C11.4242 6.62575 11.4202 6.62263 11.4202 6.62263C13.6962 5.2155 13.7802 3.88023 13.7813 3.70844V3.69817C13.7812 3.69679 13.7812 3.69558 13.7812 3.69454L13.781 3.69036C13.781 3.02895 13.3384 3.24992 13.3384 3.24992ZM11.7153 10.5462L11.7152 10.5544C11.7144 10.5895 11.7081 10.7322 11.6609 10.8972C11.4482 11.6432 10.3508 13.7172 6.77124 13.9546C6.77124 13.9546 8.05584 11.6075 10.6825 10.142C10.6825 10.142 11.7153 9.54717 11.7153 10.5462ZM10.8301 6.76927C11.2465 6.9323 10.8777 7.30934 10.8341 7.3519L10.8301 7.35583C10.7645 7.42678 10.6764 7.51725 10.5811 7.61304L10.5085 7.68565C10.2393 7.95395 9.94476 8.23567 9.94476 8.23567C10.3551 7.42426 10.8301 6.76927 10.8301 6.76927ZM13.1908 3.83648C13.1908 3.83648 13.1863 3.85124 13.1762 3.87902L13.1662 3.90598C13.0523 4.20668 12.5156 5.42773 10.9773 6.47599C10.9773 6.47599 12.0971 4.79636 13.1908 3.83648Z" fill="white"/>
</g>
<defs>
<clipPath id="clip0_1633_201">
<rect width="20" height="20" fill="white"/>
</clipPath>
</defs>
</svg>
