<svg width="13" height="13" viewBox="0 0 13 13" fill="none" xmlns="http://www.w3.org/2000/svg">
<path d="M5.3505 9.81608C5.50141 9.96708 5.6806 10.0869 5.87782 10.1686C6.07504 10.2503 6.28643 10.2924 6.49992 10.2924C6.7134 10.2924 6.9248 10.2503 7.12202 10.1686C7.31924 10.0869 7.49843 9.96708 7.64934 9.81608L9.38863 8.07679C9.48188 7.97365 9.5319 7.8386 9.52833 7.6996C9.52476 7.5606 9.46788 7.4283 9.36945 7.33008C9.27103 7.23187 9.13861 7.17527 8.9996 7.17199C8.86059 7.16872 8.72565 7.21902 8.62271 7.3125L7.03779 8.89795L7.04159 0.541666C7.04159 0.398008 6.98452 0.260233 6.88293 0.15865C6.78135 0.0570683 6.64358 0 6.49992 0C6.35626 0 6.21848 0.0570683 6.1169 0.15865C6.01532 0.260233 5.95825 0.398008 5.95825 0.541666L5.95338 8.88766L4.37713 7.3125C4.27549 7.21093 4.13767 7.1539 3.99398 7.15395C3.85029 7.154 3.71251 7.21113 3.61094 7.31277C3.50937 7.41441 3.45234 7.55223 3.45239 7.69592C3.45244 7.83961 3.50957 7.97739 3.61121 8.07895L5.3505 9.81608Z" fill="#232323"/>
<path d="M12.4583 8.66699C12.3147 8.66699 12.1769 8.72406 12.0753 8.82564C11.9737 8.92722 11.9167 9.065 11.9167 9.20866V11.3753C11.9167 11.519 11.8596 11.6568 11.758 11.7583C11.6564 11.8599 11.5187 11.917 11.375 11.917H1.625C1.48134 11.917 1.34357 11.8599 1.24198 11.7583C1.1404 11.6568 1.08333 11.519 1.08333 11.3753V9.20866C1.08333 9.065 1.02627 8.92722 0.924683 8.82564C0.823101 8.72406 0.685326 8.66699 0.541667 8.66699C0.398008 8.66699 0.260233 8.72406 0.158651 8.82564C0.0570683 8.92722 0 9.065 0 9.20866L0 11.3753C0 11.8063 0.171205 12.2196 0.475951 12.5244C0.780698 12.8291 1.19402 13.0003 1.625 13.0003H11.375C11.806 13.0003 12.2193 12.8291 12.524 12.5244C12.8288 12.2196 13 11.8063 13 11.3753V9.20866C13 9.065 12.9429 8.92722 12.8414 8.82564C12.7398 8.72406 12.602 8.66699 12.4583 8.66699Z" fill="#232323"/>
</svg>
