<svg width="18" height="18" viewBox="0 0 18 18" fill="none" xmlns="http://www.w3.org/2000/svg">
<g clip-path="url(#clip0_1633_203)">
<path d="M8.8931 5.92969C7.25642 5.92969 5.92969 7.25642 5.92969 8.8931C5.92969 10.5298 7.25642 11.8565 8.8931 11.8565C10.5298 11.8565 11.8565 10.5298 11.8565 8.8931C11.8565 7.25642 10.5298 5.92969 8.8931 5.92969Z" fill="white"/>
<path d="M17.946 5.292C17.802 2.022 15.984 0.204 12.714 0.054C11.748 7.45058e-09 11.442 0 9 0C6.558 0 6.252 7.45058e-09 5.292 0.054C2.022 0.204 0.204 2.016 0.054 5.286C7.45058e-09 6.252 0 6.558 0 9C0 11.442 7.45058e-09 11.748 0.054 12.708C0.204 15.978 2.016 17.796 5.286 17.946C6.252 18 6.558 18 9 18C11.442 18 11.748 18 12.714 17.946C15.978 17.796 17.796 15.984 17.946 12.708C18 11.748 18 11.442 18 9C18 6.558 18 6.252 17.946 5.292ZM9 13.62C6.44844 13.62 4.38 11.5516 4.38 9C4.38 6.44844 6.44844 4.38 9 4.38C11.5516 4.38 13.62 6.44844 13.62 9C13.62 11.5516 11.5516 13.62 9 13.62ZM13.8 5.274C13.2036 5.274 12.72 4.79044 12.72 4.194C12.72 3.59756 13.2036 3.114 13.8 3.114C14.3964 3.114 14.88 3.59756 14.88 4.194C14.8816 4.48089 14.7684 4.75667 14.5656 4.95956C14.3627 5.16244 14.0869 5.27556 13.8 5.274Z" fill="white"/>
</g>
<defs>
<clipPath id="clip0_1633_203">
<rect width="18" height="18" fill="white"/>
</clipPath>
</defs>
</svg>
