<svg width="165" height="18" viewBox="0 0 165 18" fill="none" xmlns="http://www.w3.org/2000/svg">
<g clip-path="url(#clip0_1633_254)">
<path d="M106.349 14.2502H116.199V17.7002H102.449V0.300166H106.349V14.2502ZM84.9254 17.7002H98.6754V14.2952H88.7715V10.7027H97.5295V7.29767H88.7715V3.70517H98.6754V0.300166H84.9254V17.7002ZM119.885 17.7002H123.784V0.300166H119.885V17.7002ZM45.1497 0.300166H41.25V17.7002H55V14.2502H45.1497V0.300166ZM58.6858 17.7002H62.5854V0.300166H58.6858V17.7002ZM161.1 0.300166V11.1752L152.824 0.487666L152.678 0.300166H148.924V17.7002H152.824V6.64892L161.1 17.3214L161.394 17.6964H165V0.300166H161.1ZM145.139 5.45642C144.68 4.39283 144.008 3.4302 143.164 2.62517C142.3 1.80588 141.285 1.15556 140.174 0.708916C137.731 -0.235939 135.015 -0.235939 132.573 0.708916C131.464 1.14906 130.455 1.79959 129.603 2.62326C128.751 3.44692 128.073 4.42753 127.608 5.50892C127.125 6.61163 126.878 7.79991 126.882 9.00017V9.04892C126.869 10.2475 127.103 11.4362 127.569 12.5439C128.027 13.6083 128.699 14.5712 129.544 15.3752C130.408 16.1931 131.423 16.8421 132.535 17.2877C133.738 17.7709 135.027 18.0132 136.327 18.0002C137.636 18.0147 138.934 17.7738 140.147 17.2914C141.255 16.8524 142.265 16.2027 143.117 15.3796C143.969 14.5565 144.647 13.5763 145.112 12.4952C145.593 11.3908 145.836 10.201 145.826 9.00017V8.95142C145.839 7.75287 145.605 6.56416 145.139 5.45642ZM141.812 9.04892C141.822 9.77735 141.692 10.5011 141.43 11.1827C141.173 11.8287 140.796 12.4224 140.319 12.9339C139.837 13.4433 139.251 13.8471 138.6 14.1189C137.907 14.4085 137.161 14.554 136.408 14.5464C135.648 14.5573 134.895 14.4064 134.2 14.1039C133.547 13.8194 132.958 13.4113 132.465 12.903C131.973 12.3947 131.588 11.7961 131.332 11.1414C131.068 10.4576 130.939 9.73113 130.95 9.00017V8.95142C130.939 8.22286 131.068 7.49884 131.332 6.81767C131.589 6.17162 131.966 5.57788 132.443 5.06642C132.921 4.55988 133.501 4.15636 134.147 3.88142C134.844 3.5897 135.596 3.4441 136.354 3.45392C137.11 3.44613 137.859 3.597 138.55 3.89642C139.206 4.17821 139.798 4.5848 140.292 5.09266C140.786 5.60052 141.173 6.19958 141.43 6.85517C141.691 7.5409 141.821 8.26815 141.812 9.00017V9.04892ZM82.1181 0.300166H77.4278L70.2358 7.76642V0.300166H66.3361V17.7002H70.2358V12.3752L72.2868 10.2902L77.783 17.7002H82.4656L74.9184 7.68392L82.1181 0.300166ZM24.0625 6.62642L34.375 0.300166H24.0625V6.62642ZM24.0625 13.2002V17.7002H10.3125V6.62642L0 0.300166H12.1458V13.2002H24.0625Z" fill="white"/>
</g>
<defs>
<clipPath id="clip0_1633_254">
<rect width="165" height="18" fill="white"/>
</clipPath>
</defs>
</svg>
