<svg width="140" height="16" viewBox="0 0 140 16" fill="none" xmlns="http://www.w3.org/2000/svg">
<path d="M90.2352 12.6666H98.5931V15.7332H86.9264V0.26657H90.2352V12.6666ZM72.0579 15.7332H83.7245V12.7066H75.3213V9.51324H82.7523V6.48657H75.3213V3.29324H83.7245V0.26657H72.0579V15.7332ZM101.72 15.7332H105.029V0.26657H101.72V15.7332ZM38.3088 0.26657H35V15.7332H46.6667V12.6666H38.3088V0.26657ZM49.794 15.7332H53.1028V0.26657H49.794V15.7332ZM136.691 0.26657V9.93324L129.669 0.433237L129.545 0.26657H126.36V15.7332H129.669V5.9099L136.691 15.3966L136.941 15.7299H140V0.26657H136.691ZM123.148 4.8499C122.758 3.90449 122.189 3.04882 121.473 2.33324C120.74 1.60498 119.878 1.02692 118.935 0.629904C116.863 -0.209968 114.558 -0.209968 112.486 0.629904C111.546 1.02114 110.689 1.59939 109.966 2.33154C109.243 3.06368 108.668 3.93534 108.273 4.89657C107.864 5.87676 107.654 6.93301 107.657 7.9999V8.04324C107.647 9.10861 107.845 10.1652 108.241 11.1499C108.629 12.096 109.199 12.9519 109.916 13.6666C110.65 14.3936 111.511 14.9706 112.454 15.3666C113.475 15.7961 114.569 16.0115 115.672 15.9999C116.782 16.0129 117.884 15.7987 118.912 15.3699C119.853 14.9797 120.709 14.4022 121.432 13.6705C122.155 12.9389 122.731 12.0676 123.125 11.1066C123.533 10.1249 123.739 9.06732 123.731 7.9999V7.95657C123.742 6.8912 123.544 5.83456 123.148 4.8499ZM120.325 8.04324C120.334 8.69074 120.224 9.33407 120.001 9.9399C119.783 10.5142 119.463 11.0419 119.058 11.4966C118.65 11.9493 118.153 12.3082 117.6 12.5499C117.012 12.8073 116.379 12.9367 115.74 12.9299C115.095 12.9396 114.456 12.8054 113.867 12.5366C113.313 12.2837 112.813 11.9209 112.395 11.4691C111.977 11.0172 111.65 10.4851 111.433 9.90324C111.21 9.29536 111.1 8.64965 111.109 7.9999V7.95657C111.099 7.30897 111.209 6.66539 111.433 6.0599C111.651 5.48564 111.971 4.95788 112.376 4.50324C112.782 4.05298 113.274 3.6943 113.821 3.4499C114.413 3.1906 115.051 3.06118 115.694 3.0699C116.336 3.06298 116.971 3.19709 117.558 3.46324C118.114 3.71372 118.616 4.07514 119.036 4.52657C119.455 4.978 119.783 5.51049 120.001 6.09324C120.223 6.70278 120.333 7.34923 120.325 7.9999V8.04324ZM69.6759 0.26657H65.6963L59.594 6.90324V0.26657H56.2852V15.7332H59.594V10.9999L61.3343 9.14657L65.9977 15.7332H69.9708L63.5671 6.8299L69.6759 0.26657ZM20.4167 5.8899L29.1667 0.26657H20.4167V5.8899Z" fill="#1C1B1A"/>
<path d="M20.4167 11.7333V15.7333H8.75V5.88994L0 0.266602H10.3056V11.7333H20.4167Z" fill="#FF7710"/>
</svg>
