<svg width="14" height="14" viewBox="0 0 14 14" fill="none" xmlns="http://www.w3.org/2000/svg">
<path d="M0.846231 3.87848C0.650886 3.9343 0.4735 4.04016 0.331626 4.18558C0.189752 4.331 0.0883066 4.51095 0.0373286 4.70762C-0.0136494 4.90429 -0.0123934 5.11086 0.0409723 5.30689C0.094338 5.50292 0.197964 5.68162 0.341596 5.82531L2.33213 7.81356V11.6559H6.17845L8.1824 13.657C8.28996 13.7654 8.4179 13.8516 8.55887 13.9105C8.69984 13.9693 8.85105 13.9998 9.00382 14C9.10423 13.9998 9.2042 13.9869 9.30135 13.9615C9.49793 13.912 9.678 13.8116 9.82343 13.6703C9.96886 13.5291 10.0745 13.352 10.1298 13.157L14 0L0.846231 3.87848ZM1.1706 5.00038L11.1046 2.07168L3.50009 9.66413V7.3305L1.1706 5.00038ZM9.0114 12.832L6.66208 10.4891H4.32851L11.9319 2.89195L9.0114 12.832Z" fill="#232323"/>
</svg>
