<svg width="21" height="14" viewBox="0 0 21 14" fill="none" xmlns="http://www.w3.org/2000/svg">
<g clip-path="url(#clip0_1633_206)">
<path d="M20.034 2.19053C19.7986 1.32829 19.1053 0.649214 18.225 0.41876C16.6293 0 10.2308 0 10.2308 0C10.2308 0 3.8323 0 2.23658 0.41876C1.35624 0.64925 0.662889 1.32829 0.427564 2.19053C0 3.75339 0 7.01415 0 7.01415C0 7.01415 0 10.2749 0.427564 11.8378C0.662889 12.7 1.35624 13.3508 2.23658 13.5812C3.8323 14 10.2308 14 10.2308 14C10.2308 14 16.6292 14 18.225 13.5812C19.1053 13.3508 19.7986 12.7 20.034 11.8378C20.4615 10.2749 20.4615 7.01415 20.4615 7.01415C20.4615 7.01415 20.4615 3.75339 20.034 2.19053ZM8.1381 9.97467V4.05362L13.486 7.01422L8.1381 9.97467Z" fill="white"/>
</g>
<defs>
<clipPath id="clip0_1633_206">
<rect width="21" height="14" fill="white"/>
</clipPath>
</defs>
</svg>
