<svg width="30" height="30" viewBox="0 0 30 30" fill="none" xmlns="http://www.w3.org/2000/svg">
<path d="M27.5 12.5H17.5V2.5C17.5 1.83696 17.2366 1.20107 16.7678 0.732234C16.2989 0.263393 15.663 0 15 0C14.337 0 13.7011 0.263393 13.2322 0.732234C12.7634 1.20107 12.5 1.83696 12.5 2.5V12.5H2.5C1.83696 12.5 1.20107 12.7634 0.732234 13.2322C0.263393 13.7011 0 14.337 0 15C0 15.663 0.263393 16.2989 0.732234 16.7678C1.20107 17.2366 1.83696 17.5 2.5 17.5H12.5V27.5C12.5 28.163 12.7634 28.7989 13.2322 29.2678C13.7011 29.7366 14.337 30 15 30C15.663 30 16.2989 29.7366 16.7678 29.2678C17.2366 28.7989 17.5 28.163 17.5 27.5V17.5H27.5C28.163 17.5 28.7989 17.2366 29.2678 16.7678C29.7366 16.2989 30 15.663 30 15C30 14.337 29.7366 13.7011 29.2678 13.2322C28.7989 12.7634 28.163 12.5 27.5 12.5Z" fill="#92CAFF"/>
</svg>
