<svg width="18" height="18" viewBox="0 0 18 18" fill="none" xmlns="http://www.w3.org/2000/svg">
<path d="M17.5813 0.418746C17.3131 0.150623 16.9493 0 16.5701 0C16.1909 0 15.8271 0.150623 15.5589 0.418746L9 6.97769L2.44106 0.418746C2.17286 0.150623 1.80914 0 1.4299 0C1.05066 0 0.68695 0.150623 0.418746 0.418746C0.150623 0.68695 0 1.05066 0 1.4299C0 1.80914 0.150623 2.17286 0.418746 2.44106L6.97769 9L0.418746 15.5589C0.150623 15.8271 0 16.1909 0 16.5701C0 16.9493 0.150623 17.3131 0.418746 17.5813C0.68695 17.8494 1.05066 18 1.4299 18C1.80914 18 2.17286 17.8494 2.44106 17.5813L9 11.0223L15.5589 17.5813C15.8271 17.8494 16.1909 18 16.5701 18C16.9493 18 17.3131 17.8494 17.5813 17.5813C17.8494 17.3131 18 16.9493 18 16.5701C18 16.1909 17.8494 15.8271 17.5813 15.5589L11.0223 9L17.5813 2.44106C17.8494 2.17286 18 1.80914 18 1.4299C18 1.05066 17.8494 0.68695 17.5813 0.418746Z" fill="#92CAFF"/>
</svg>
